<svg width="500" height="500" xmlns="http://www.w3.org/2000/svg">
<rect width="100%" height="120%" fill="#EEEEEE" />
<circle cx="150" cy="150" r="150" stroke="black" stroke-width="2" fill="none" />
<circle cx="350" cy="150" r="150" stroke="black" stroke-width="2" fill="none" />
<circle cx="364.6184" cy="404.0395" r="4" fill="red" />
<circle cx="171.91972" cy="7.7247033" r="4" fill="yellow" />
<circle cx="306.5618" cy="293.44443" r="4" fill="purple" />
<circle cx="357.49463" cy="375.20093" r="4" fill="red" />
<circle cx="277.78802" cy="163.5783" r="4" fill="green" />
<circle cx="86.434494" cy="161.61336" r="4" fill="yellow" />
<circle cx="7.63023" cy="18.769207" r="4" fill="red" />
<circle cx="181.78275" cy="241.57426" r="4" fill="yellow" />
<circle cx="172.55899" cy="370.96344" r="4" fill="red" />
<circle cx="153.44664" cy="414.39728" r="4" fill="red" />
<circle cx="463.4152" cy="113.06013" r="4" fill="purple" />
<circle cx="396.84515" cy="431.46692" r="4" fill="red" />
<circle cx="431.57358" cy="414.46725" r="4" fill="red" />
<circle cx="302.28" cy="195.97122" r="4" fill="purple" />
<circle cx="142.75165" cy="76.078186" r="4" fill="yellow" />
<circle cx="297.26968" cy="416.22513" r="4" fill="red" />
<circle cx="162.87567" cy="194.5137" r="4" fill="yellow" />
<circle cx="79.870056" cy="182.66423" r="4" fill="yellow" />
<circle cx="60.412476" cy="271.3332" r="4" fill="red" />
<circle cx="100.00087" cy="3.2109623" r="4" fill="red" />
<circle cx="481.59464" cy="87.41922" r="4" fill="purple" />
<circle cx="7.571877" cy="219.82922" r="4" fill="red" />
<circle cx="4.1022305" cy="217.58089" r="4" fill="red" />
<circle cx="475.6606" cy="341.97244" r="4" fill="red" />
<circle cx="262.68228" cy="185.72195" r="4" fill="green" />
<circle cx="340.28845" cy="251.46266" r="4" fill="purple" />
<circle cx="97.622406" cy="22.127035" r="4" fill="yellow" />
<circle cx="38.44077" cy="361.96094" r="4" fill="red" />
<circle cx="159.47606" cy="191.42213" r="4" fill="yellow" />
<circle cx="222.33119" cy="385.39862" r="4" fill="red" />
<circle cx="343.80804" cy="110.23481" r="4" fill="purple" />
<circle cx="57.84536" cy="432.45596" r="4" fill="red" />
<circle cx="478.7552" cy="161.1295" r="4" fill="purple" />
<circle cx="340.4877" cy="382.6089" r="4" fill="red" />
<circle cx="27.503494" cy="412.28104" r="4" fill="red" />
<circle cx="440.25952" cy="102.49252" r="4" fill="purple" />
<circle cx="493.53528" cy="97.14646" r="4" fill="red" />
<circle cx="474.47812" cy="383.6503" r="4" fill="red" />
<circle cx="472.1374" cy="5.5330997" r="4" fill="red" />
<circle cx="118.93393" cy="498.34174" r="4" fill="red" />
<circle cx="324.49387" cy="273.58047" r="4" fill="purple" />
<circle cx="298.9686" cy="462.54987" r="4" fill="red" />
<circle cx="447.9352" cy="454.8854" r="4" fill="red" />
<circle cx="105.13659" cy="255.84962" r="4" fill="yellow" />
<circle cx="274.0522" cy="481.36313" r="4" fill="red" />
<circle cx="224.95618" cy="203.82967" r="4" fill="green" />
<circle cx="151.87312" cy="113.39708" r="4" fill="yellow" />
<circle cx="407.1908" cy="407.5539" r="4" fill="red" />
<circle cx="452.2981" cy="108.31566" r="4" fill="purple" />
<circle cx="305.5257" cy="399.78473" r="4" fill="red" />
<circle cx="261.14188" cy="149.02666" r="4" fill="green" />
<circle cx="76.9778" cy="263.19067" r="4" fill="yellow" />
<circle cx="310.81137" cy="406.4258" r="4" fill="red" />
<circle cx="286.58817" cy="192.91904" r="4" fill="green" />
<circle cx="240.36357" cy="220.55748" r="4" fill="green" />
<circle cx="77.17497" cy="2.2544267" r="4" fill="red" />
<circle cx="250.23898" cy="402.71536" r="4" fill="red" />
<circle cx="444.97595" cy="24.06514" r="4" fill="red" />
<circle cx="143.28815" cy="442.93875" r="4" fill="red" />
<circle cx="439.1013" cy="232.91412" r="4" fill="purple" />
<circle cx="440.26416" cy="117.69922" r="4" fill="purple" />
<circle cx="17.030659" cy="303.89545" r="4" fill="red" />
<circle cx="417.514" cy="461.44272" r="4" fill="red" />
<circle cx="233.02016" cy="279.12607" r="4" fill="red" />
<circle cx="311.77512" cy="82.19887" r="4" fill="purple" />
<circle cx="72.17277" cy="166.29984" r="4" fill="yellow" />
<circle cx="309.0357" cy="250.74408" r="4" fill="purple" />
<circle cx="239.40881" cy="131.91928" r="4" fill="green" />
<circle cx="252.15105" cy="351.89777" r="4" fill="red" />
<circle cx="382.86124" cy="147.66534" r="4" fill="purple" />
<circle cx="435.05872" cy="137.69276" r="4" fill="purple" />
<circle cx="335.365" cy="119.10201" r="4" fill="purple" />
<circle cx="170.42818" cy="431.56052" r="4" fill="red" />
<circle cx="368.7967" cy="174.33658" r="4" fill="purple" />
<circle cx="120.754196" cy="491.56403" r="4" fill="red" />
<circle cx="426.8176" cy="267.29855" r="4" fill="purple" />
<circle cx="13.62759" cy="461.77536" r="4" fill="red" />
<circle cx="26.931051" cy="49.597626" r="4" fill="red" />
<circle cx="402.76974" cy="483.29425" r="4" fill="red" />
<circle cx="469.5174" cy="398.56772" r="4" fill="red" />
<circle cx="498.16913" cy="54.476566" r="4" fill="red" />
<circle cx="158.4064" cy="465.9168" r="4" fill="red" />
<circle cx="280.38947" cy="8.914948" r="4" fill="red" />
<circle cx="495.10062" cy="480.31454" r="4" fill="red" />
<circle cx="294.348" cy="57.986923" r="4" fill="purple" />
<circle cx="144.33899" cy="300.5999" r="4" fill="red" />
<circle cx="101.06273" cy="412.75357" r="4" fill="red" />
<circle cx="55.281586" cy="391.42755" r="4" fill="red" />
<circle cx="169.19913" cy="468.90277" r="4" fill="red" />
<circle cx="323.63156" cy="287.72858" r="4" fill="purple" />
<circle cx="209.99571" cy="18.819931" r="4" fill="yellow" />
<circle cx="437.24573" cy="293.57837" r="4" fill="red" />
<circle cx="67.23798" cy="259.52026" r="4" fill="yellow" />
<circle cx="491.70435" cy="115.80302" r="4" fill="purple" />
<circle cx="186.75276" cy="484.44678" r="4" fill="red" />
<circle cx="48.284775" cy="368.0356" r="4" fill="red" />
<circle cx="491.94537" cy="289.93842" r="4" fill="red" />
<circle cx="62.447197" cy="55.113323" r="4" fill="yellow" />
<circle cx="296.49673" cy="31.446342" r="4" fill="purple" />
<circle cx="171.54726" cy="388.92404" r="4" fill="red" />
<circle cx="464.86014" cy="379.41907" r="4" fill="red" />
<circle cx="46.617157" cy="19.768658" r="4" fill="red" />
<circle cx="330.01816" cy="332.2107" r="4" fill="red" />
<circle cx="133.69049" cy="430.57114" r="4" fill="red" />
<circle cx="25.632683" cy="251.41612" r="4" fill="red" />
<circle cx="145.17667" cy="315.8986" r="4" fill="red" />
<circle cx="369.3425" cy="376.16156" r="4" fill="red" />
<circle cx="347.42062" cy="85.50549" r="4" fill="purple" />
<circle cx="487.1793" cy="245.53564" r="4" fill="red" />
<circle cx="310.31583" cy="18.817785" r="4" fill="purple" />
<circle cx="451.41833" cy="409.08334" r="4" fill="red" />
<circle cx="398.23053" cy="427.9677" r="4" fill="red" />
<circle cx="156.675" cy="98.97853" r="4" fill="yellow" />
<circle cx="478.76334" cy="472.8806" r="4" fill="red" />
<circle cx="391.34592" cy="433.83807" r="4" fill="red" />
<circle cx="392.569" cy="443.1417" r="4" fill="red" />
<circle cx="110.312416" cy="268.61945" r="4" fill="yellow" />
<circle cx="22.56036" cy="98.17035" r="4" fill="yellow" />
<circle cx="45.78287" cy="61.507233" r="4" fill="yellow" />
<circle cx="120.26079" cy="263.18976" r="4" fill="yellow" />
<circle cx="330.10623" cy="318.53226" r="4" fill="red" />
<circle cx="439.52466" cy="229.73492" r="4" fill="purple" />
<circle cx="222.19595" cy="356.42563" r="4" fill="red" />
<circle cx="309.8286" cy="375.77814" r="4" fill="red" />
<circle cx="110.54749" cy="369.93686" r="4" fill="red" />
<circle cx="465.55173" cy="108.87165" r="4" fill="purple" />
<circle cx="497.14243" cy="381.99084" r="4" fill="red" />
<circle cx="44.484978" cy="141.69307" r="4" fill="yellow" />
<circle cx="183.89584" cy="44.98959" r="4" fill="yellow" />
<circle cx="172.09567" cy="406.3769" r="4" fill="red" />
<circle cx="260.8082" cy="486.90457" r="4" fill="red" />
<circle cx="382.1717" cy="228.24701" r="4" fill="purple" />
<circle cx="108.63723" cy="413.5909" r="4" fill="red" />
<circle cx="172.83578" cy="402.68195" r="4" fill="red" />
<circle cx="200.60046" cy="257.99445" r="4" fill="yellow" />
<circle cx="406.20993" cy="169.98161" r="4" fill="purple" />
<circle cx="35.65848" cy="276.44806" r="4" fill="red" />
<circle cx="460.73312" cy="455.07056" r="4" fill="red" />
<circle cx="121.03142" cy="343.41357" r="4" fill="red" />
<circle cx="405.86478" cy="372.79187" r="4" fill="red" />
<circle cx="444.57935" cy="212.6781" r="4" fill="purple" />
<circle cx="76.71602" cy="479.13373" r="4" fill="red" />
<circle cx="393.05615" cy="324.05005" r="4" fill="red" />
<circle cx="377.64774" cy="389.65082" r="4" fill="red" />
<circle cx="117.33593" cy="87.62587" r="4" fill="yellow" />
<circle cx="427.62656" cy="343.1935" r="4" fill="red" />
<circle cx="239.01883" cy="480.02838" r="4" fill="red" />
<circle cx="172.24922" cy="462.0312" r="4" fill="red" />
<circle cx="213.58034" cy="115.423454" r="4" fill="green" />
<circle cx="479.13318" cy="491.2307" r="4" fill="red" />
<circle cx="0.73707116" cy="392.36963" r="4" fill="red" />
<circle cx="199.51865" cy="450.7317" r="4" fill="red" />
<circle cx="56.647964" cy="297.1224" r="4" fill="red" />
<circle cx="174.72192" cy="403.11026" r="4" fill="red" />
<circle cx="98.1421" cy="94.21815" r="4" fill="yellow" />
<circle cx="317.61066" cy="62.675365" r="4" fill="purple" />
<circle cx="38.29432" cy="465.18826" r="4" fill="red" />
<circle cx="443.64594" cy="172.29732" r="4" fill="purple" />
<circle cx="386.65015" cy="95.75869" r="4" fill="purple" />
<circle cx="15.180113" cy="84.70149" r="4" fill="yellow" />
<circle cx="379.40924" cy="4.6479707" r="4" fill="purple" />
<circle cx="245.45845" cy="286.56927" r="4" fill="red" />
<circle cx="319.08093" cy="119.22295" r="4" fill="purple" />
<circle cx="346.65552" cy="291.65683" r="4" fill="purple" />
<circle cx="8.506955" cy="38.705116" r="4" fill="red" />
<circle cx="467.04626" cy="476.18304" r="4" fill="red" />
<circle cx="262.23175" cy="357.7347" r="4" fill="red" />
<circle cx="68.78067" cy="313.06985" r="4" fill="red" />
<circle cx="192.21428" cy="370.88083" r="4" fill="red" />
<circle cx="208.168" cy="224.42027" r="4" fill="yellow" />
<circle cx="93.82899" cy="311.0948" r="4" fill="red" />
<circle cx="323.04346" cy="371.91418" r="4" fill="red" />
<circle cx="205.84497" cy="160.32918" r="4" fill="green" />
<circle cx="4.702509" cy="411.17303" r="4" fill="red" />
<circle cx="155.42932" cy="79.06009" r="4" fill="yellow" />
<circle cx="405.10297" cy="73.802956" r="4" fill="purple" />
<circle cx="233.62723" cy="355.97244" r="4" fill="red" />
<circle cx="238.06479" cy="201.8462" r="4" fill="green" />
<circle cx="37.77266" cy="301.61493" r="4" fill="red" />
<circle cx="41.164047" cy="10.786892" r="4" fill="red" />
<circle cx="352.6918" cy="442.34644" r="4" fill="red" />
<circle cx="338.7271" cy="315.13992" r="4" fill="red" />
<circle cx="49.87115" cy="27.788584" r="4" fill="red" />
<circle cx="232.38203" cy="201.63997" r="4" fill="green" />
<circle cx="71.3696" cy="476.73416" r="4" fill="red" />
<circle cx="240.87915" cy="252.67026" r="4" fill="green" />
<circle cx="450.4258" cy="173.14436" r="4" fill="purple" />
<circle cx="306.9586" cy="435.6954" r="4" fill="red" />
<circle cx="364.59116" cy="295.56326" r="4" fill="purple" />
<circle cx="134.16214" cy="278.20132" r="4" fill="yellow" />
<circle cx="90.007675" cy="407.3532" r="4" fill="red" />
<circle cx="35.32309" cy="157.59297" r="4" fill="yellow" />
<circle cx="92.75271" cy="258.56976" r="4" fill="yellow" />
<circle cx="129.04306" cy="135.5951" r="4" fill="yellow" />
<circle cx="371.27695" cy="4.0425663" r="4" fill="purple" />
<circle cx="100.31314" cy="24.089817" r="4" fill="yellow" />
<circle cx="312.13556" cy="494.73334" r="4" fill="red" />
<circle cx="448.0722" cy="241.91644" r="4" fill="purple" />
<circle cx="452.13937" cy="245.83582" r="4" fill="purple" />
<circle cx="157.7359" cy="296.66608" r="4" fill="yellow" />
</svg>