<svg width="500" height="500" xmlns="http://www.w3.org/2000/svg">
<rect width="100%" height="120%" fill="#EEEEEE" />
<circle cx="0" cy="250" r="100" stroke="black" stroke-width="2" fill="none" />
<circle cx="408.4193" cy="8.7577715" r="4" fill="red" />
<circle cx="153.23187" cy="44.446297" r="4" fill="red" />
<circle cx="100.795815" cy="127.55467" r="4" fill="red" />
<circle cx="473.17212" cy="19.757214" r="4" fill="red" />
<circle cx="404.02936" cy="448.72968" r="4" fill="red" />
<circle cx="129.05856" cy="321.6267" r="4" fill="red" />
<circle cx="50.69322" cy="231.06596" r="4" fill="green" />
<circle cx="306.5252" cy="349.18958" r="4" fill="red" />
<circle cx="381.56323" cy="247.20589" r="4" fill="red" />
<circle cx="103.788864" cy="176.2655" r="4" fill="red" />
<circle cx="242.07666" cy="166.42572" r="4" fill="red" />
<circle cx="492.96564" cy="8.21221" r="4" fill="red" />
<circle cx="294.1064" cy="69.28337" r="4" fill="red" />
<circle cx="344.47437" cy="94.48017" r="4" fill="red" />
<circle cx="259.6509" cy="169.53172" r="4" fill="red" />
<circle cx="196.36436" cy="275.67868" r="4" fill="red" />
<circle cx="148.28333" cy="380.423" r="4" fill="red" />
<circle cx="73.621994" cy="103.82373" r="4" fill="red" />
<circle cx="441.43307" cy="83.68493" r="4" fill="red" />
<circle cx="401.75735" cy="204.66986" r="4" fill="red" />
<circle cx="212.32584" cy="341.3966" r="4" fill="red" />
<circle cx="470.3511" cy="239.40495" r="4" fill="red" />
<circle cx="413.6446" cy="482.78998" r="4" fill="red" />
<circle cx="245.73532" cy="206.13953" r="4" fill="red" />
<circle cx="122.02097" cy="340.40384" r="4" fill="red" />
<circle cx="184.08582" cy="54.627186" r="4" fill="red" />
<circle cx="36.378983" cy="291.38705" r="4" fill="green" />
<circle cx="428.22067" cy="246.3458" r="4" fill="red" />
<circle cx="188.81735" cy="205.42517" r="4" fill="red" />
<circle cx="77.92944" cy="222.55144" r="4" fill="green" />
<circle cx="125.33714" cy="332.20636" r="4" fill="red" />
<circle cx="227.01976" cy="274.39145" r="4" fill="red" />
<circle cx="404.18362" cy="451.2496" r="4" fill="red" />
<circle cx="242.09789" cy="137.33693" r="4" fill="red" />
<circle cx="262.80478" cy="490.16916" r="4" fill="red" />
<circle cx="358.0083" cy="271.81342" r="4" fill="red" />
<circle cx="442.86465" cy="135.14145" r="4" fill="red" />
<circle cx="165.43515" cy="340.73123" r="4" fill="red" />
<circle cx="11.520328" cy="169.51306" r="4" fill="green" />
<circle cx="6.5615783" cy="94.18745" r="4" fill="red" />
<circle cx="272.07687" cy="117.21523" r="4" fill="red" />
<circle cx="439.2762" cy="130.26805" r="4" fill="red" />
<circle cx="311.0961" cy="19.677343" r="4" fill="red" />
<circle cx="228.34006" cy="173.59074" r="4" fill="red" />
<circle cx="261.763" cy="52.979416" r="4" fill="red" />
<circle cx="449.33783" cy="54.245003" r="4" fill="red" />
<circle cx="499.55804" cy="74.5408" r="4" fill="red" />
<circle cx="55.638203" cy="452.74478" r="4" fill="red" />
<circle cx="78.72165" cy="285.27997" r="4" fill="green" />
<circle cx="247.70906" cy="314.19562" r="4" fill="red" />
<circle cx="124.119354" cy="172.09657" r="4" fill="red" />
<circle cx="41.890686" cy="351.12976" r="4" fill="red" />
<circle cx="80.04452" cy="85.45185" r="4" fill="red" />
<circle cx="46.823746" cy="321.7502" r="4" fill="green" />
<circle cx="254.56091" cy="110.42894" r="4" fill="red" />
<circle cx="65.81897" cy="84.703995" r="4" fill="red" />
<circle cx="216.17224" cy="435.87057" r="4" fill="red" />
<circle cx="154.53525" cy="145.42503" r="4" fill="red" />
<circle cx="265.5302" cy="307.35175" r="4" fill="red" />
<circle cx="46.763725" cy="266.46814" r="4" fill="green" />
<circle cx="485.92365" cy="443.47125" r="4" fill="red" />
<circle cx="323.13083" cy="388.8515" r="4" fill="red" />
<circle cx="446.93875" cy="77.75504" r="4" fill="red" />
<circle cx="489.3545" cy="164.414" r="4" fill="red" />
<circle cx="21.861496" cy="31.017784" r="4" fill="red" />
<circle cx="476.2375" cy="472.01007" r="4" fill="red" />
<circle cx="71.78689" cy="127.32132" r="4" fill="red" />
<circle cx="257.34058" cy="188.5366" r="4" fill="red" />
<circle cx="413.78067" cy="443.90833" r="4" fill="red" />
<circle cx="375.7742" cy="284.3687" r="4" fill="red" />
<circle cx="485.29797" cy="482.43893" r="4" fill="red" />
<circle cx="343.10446" cy="197.85353" r="4" fill="red" />
<circle cx="354.14896" cy="368.59552" r="4" fill="red" />
<circle cx="499.12726" cy="111.32301" r="4" fill="red" />
<circle cx="393.73743" cy="235.23894" r="4" fill="red" />
<circle cx="174.63626" cy="215.33414" r="4" fill="red" />
<circle cx="203.79605" cy="482.0578" r="4" fill="red" />
<circle cx="248.21732" cy="383.08453" r="4" fill="red" />
<circle cx="193.16992" cy="112.18668" r="4" fill="red" />
<circle cx="323.9892" cy="362.7455" r="4" fill="red" />
<circle cx="59.44986" cy="27.230505" r="4" fill="red" />
<circle cx="271.66226" cy="64.37982" r="4" fill="red" />
<circle cx="327.23508" cy="186.93872" r="4" fill="red" />
<circle cx="96.87449" cy="367.8137" r="4" fill="red" />
<circle cx="402.41907" cy="215.44489" r="4" fill="red" />
<circle cx="115.23832" cy="134.18849" r="4" fill="red" />
<circle cx="342.66415" cy="402.1417" r="4" fill="red" />
<circle cx="133.16699" cy="397.25494" r="4" fill="red" />
<circle cx="163.76866" cy="398.5446" r="4" fill="red" />
<circle cx="28.816286" cy="393.80722" r="4" fill="red" />
<circle cx="485.08215" cy="438.02725" r="4" fill="red" />
<circle cx="19.909742" cy="414.12674" r="4" fill="red" />
<circle cx="207.98727" cy="106.224075" r="4" fill="red" />
<circle cx="388.5063" cy="7.985593" r="4" fill="red" />
<circle cx="336.61023" cy="406.25845" r="4" fill="red" />
<circle cx="83.88354" cy="247.17537" r="4" fill="green" />
<circle cx="248.0714" cy="142.9562" r="4" fill="red" />
<circle cx="387.8513" cy="285.32675" r="4" fill="red" />
<circle cx="190.50005" cy="496.63544" r="4" fill="red" />
<circle cx="371.1025" cy="308.2325" r="4" fill="red" />
<circle cx="195.40831" cy="81.25378" r="4" fill="red" />
<circle cx="93.995346" cy="339.23523" r="4" fill="red" />
<circle cx="237.08215" cy="367.5503" r="4" fill="red" />
<circle cx="436.89603" cy="427.71738" r="4" fill="red" />
<circle cx="169.79243" cy="123.55961" r="4" fill="red" />
<circle cx="461.48764" cy="91.579445" r="4" fill="red" />
<circle cx="490.06528" cy="369.09454" r="4" fill="red" />
<circle cx="115.57193" cy="9.59617" r="4" fill="red" />
<circle cx="445.8527" cy="255.9441" r="4" fill="red" />
<circle cx="226.23572" cy="3.5791402" r="4" fill="red" />
<circle cx="40.503983" cy="11.896255" r="4" fill="red" />
<circle cx="59.242794" cy="410.20667" r="4" fill="red" />
<circle cx="475.6372" cy="350.82364" r="4" fill="red" />
<circle cx="92.767075" cy="343.5227" r="4" fill="red" />
<circle cx="52.793747" cy="32.466297" r="4" fill="red" />
<circle cx="379.31995" cy="143.6822" r="4" fill="red" />
<circle cx="257.91333" cy="479.0132" r="4" fill="red" />
<circle cx="204.99924" cy="366.88486" r="4" fill="red" />
<circle cx="424.21335" cy="490.1724" r="4" fill="red" />
<circle cx="270.6937" cy="442.06213" r="4" fill="red" />
<circle cx="131.9234" cy="437.34848" r="4" fill="red" />
<circle cx="304.29868" cy="54.53754" r="4" fill="red" />
<circle cx="443.5656" cy="362.87778" r="4" fill="red" />
<circle cx="205.25238" cy="259.26175" r="4" fill="red" />
<circle cx="308.05716" cy="38.97983" r="4" fill="red" />
<circle cx="65.143" cy="418.15536" r="4" fill="red" />
<circle cx="316.97067" cy="275.45514" r="4" fill="red" />
<circle cx="2.6252272" cy="53.77919" r="4" fill="red" />
<circle cx="218.5522" cy="489.73053" r="4" fill="red" />
<circle cx="320.68488" cy="196.00948" r="4" fill="red" />
<circle cx="69.129654" cy="474.14154" r="4" fill="red" />
<circle cx="322.01086" cy="419.66605" r="4" fill="red" />
<circle cx="188.04172" cy="362.99597" r="4" fill="red" />
<circle cx="238.04745" cy="213.08127" r="4" fill="red" />
<circle cx="127.590195" cy="391.5942" r="4" fill="red" />
<circle cx="466.58243" cy="274.39957" r="4" fill="red" />
<circle cx="287.6813" cy="366.80093" r="4" fill="red" />
<circle cx="108.28156" cy="262.33344" r="4" fill="red" />
<circle cx="183.69635" cy="257.22437" r="4" fill="red" />
<circle cx="191.37343" cy="41.558033" r="4" fill="red" />
<circle cx="113.41192" cy="361.87302" r="4" fill="red" />
<circle cx="42.964283" cy="58.76631" r="4" fill="red" />
<circle cx="163.47523" cy="131.6994" r="4" fill="red" />
<circle cx="71.9247" cy="56.896275" r="4" fill="red" />
<circle cx="306.17514" cy="322.9805" r="4" fill="red" />
<circle cx="90.26237" cy="374.49127" r="4" fill="red" />
<circle cx="107.9358" cy="360.74338" r="4" fill="red" />
<circle cx="79.50677" cy="499.71854" r="4" fill="red" />
<circle cx="105.77519" cy="393.43375" r="4" fill="red" />
<circle cx="257.7989" cy="27.556541" r="4" fill="red" />
<circle cx="417.58255" cy="327.80222" r="4" fill="red" />
<circle cx="312.11655" cy="238.49043" r="4" fill="red" />
<circle cx="180.3123" cy="114.4516" r="4" fill="red" />
<circle cx="209.6264" cy="308.59708" r="4" fill="red" />
<circle cx="104.11699" cy="42.458717" r="4" fill="red" />
<circle cx="223.58707" cy="305.5133" r="4" fill="red" />
<circle cx="321.68057" cy="294.99533" r="4" fill="red" />
<circle cx="82.08175" cy="174.51604" r="4" fill="red" />
<circle cx="402.70816" cy="201.02313" r="4" fill="red" />
<circle cx="75.96893" cy="361.42194" r="4" fill="red" />
<circle cx="418.37686" cy="224.91678" r="4" fill="red" />
<circle cx="217.0712" cy="327.34427" r="4" fill="red" />
<circle cx="354.10397" cy="415.31396" r="4" fill="red" />
<circle cx="249.93411" cy="454.4819" r="4" fill="red" />
<circle cx="419.12936" cy="8.680225" r="4" fill="red" />
<circle cx="89.55956" cy="266.2283" r="4" fill="green" />
<circle cx="349.88818" cy="86.18469" r="4" fill="red" />
<circle cx="86.67435" cy="172.29857" r="4" fill="red" />
<circle cx="240.27261" cy="197.95587" r="4" fill="red" />
<circle cx="295.29892" cy="168.91809" r="4" fill="red" />
<circle cx="321.8876" cy="443.79593" r="4" fill="red" />
<circle cx="348.33936" cy="239.14381" r="4" fill="red" />
<circle cx="266.2746" cy="467.1147" r="4" fill="red" />
<circle cx="383.3699" cy="70.31287" r="4" fill="red" />
<circle cx="451.0106" cy="145.37234" r="4" fill="red" />
<circle cx="345.27603" cy="153.41057" r="4" fill="red" />
<circle cx="333.40393" cy="231.51048" r="4" fill="red" />
<circle cx="451.138" cy="129.01099" r="4" fill="red" />
<circle cx="394.99933" cy="338.10483" r="4" fill="red" />
<circle cx="282.87753" cy="30.746643" r="4" fill="red" />
<circle cx="126.247185" cy="142.84636" r="4" fill="red" />
<circle cx="439.21185" cy="376.4401" r="4" fill="red" />
<circle cx="213.71939" cy="457.78476" r="4" fill="red" />
<circle cx="321.19998" cy="419.16245" r="4" fill="red" />
<circle cx="243.98997" cy="26.802721" r="4" fill="red" />
<circle cx="48.78605" cy="436.87134" r="4" fill="red" />
<circle cx="180.71779" cy="401.12982" r="4" fill="red" />
<circle cx="458.2671" cy="147.23761" r="4" fill="red" />
<circle cx="348.37186" cy="266.9671" r="4" fill="red" />
<circle cx="13.419212" cy="99.600204" r="4" fill="red" />
<circle cx="215.32394" cy="144.85147" r="4" fill="red" />
<circle cx="70.88984" cy="19.623163" r="4" fill="red" />
<circle cx="232.9165" cy="20.491484" r="4" fill="red" />
<circle cx="81.659386" cy="306.40237" r="4" fill="green" />
<circle cx="204.60245" cy="143.56311" r="4" fill="red" />
<circle cx="485.06308" cy="284.26038" r="4" fill="red" />
<circle cx="25.595907" cy="340.62955" r="4" fill="green" />
<circle cx="348.06815" cy="384.14603" r="4" fill="red" />
<circle cx="405.40515" cy="81.327446" r="4" fill="red" />
<circle cx="133.32202" cy="116.73589" r="4" fill="red" />
</svg>