<svg width="400" height="400" xmlns="http://www.w3.org/2000/svg"><style type="text/css">rect { stroke: #000; }rect.c1 { fill: #000000; }rect.c2 { fill: #FFFFFF; }</style><rect class="c1" x="0" y="0" width="100" height="100" /><rect class="c1" x="100" y="0" width="100" height="100" /><rect class="c2" x="200" y="0" width="100" height="100" /><rect class="c2" x="300" y="0" width="100" height="100" /><rect class="c1" x="0" y="100" width="100" height="100" /><rect class="c1" x="100" y="100" width="100" height="100" /><rect class="c2" x="200" y="100" width="100" height="100" /><rect class="c2" x="300" y="100" width="100" height="100" /><rect class="c2" x="0" y="200" width="100" height="100" /><rect class="c2" x="100" y="200" width="100" height="100" /><rect class="c1" x="200" y="200" width="100" height="100" /><rect class="c1" x="300" y="200" width="100" height="100" /><rect class="c2" x="0" y="300" width="100" height="100" /><rect class="c2" x="100" y="300" width="100" height="100" /><rect class="c1" x="200" y="300" width="100" height="100" /><rect class="c1" x="300" y="300" width="100" height="100" /></svg>