<svg width="500" height="500" xmlns="http://www.w3.org/2000/svg">
<rect width="100%" height="100%" fill="#EEEEEE" />
<circle cx="250" cy="250" r="250" stroke="black" stroke-width="2" fill="none" />
<circle cx="228" cy="216" r="10" fill="#A1B2C3D4" />
<circle cx="254" cy="397" r="10" fill="#A1B2C3D4" />
<circle cx="407" cy="416" r="10" fill="#A1B2C3D4" />
<circle cx="411" cy="241" r="10" fill="#A1B2C3D4" />
<circle cx="272" cy="90" r="10" fill="#A1B2C3D4" />
<circle cx="264" cy="84" r="10" fill="#A1B2C3D4" />
<circle cx="189" cy="423" r="10" fill="#A1B2C3D4" />
<circle cx="48" cy="189" r="10" fill="#A1B2C3D4" />
<circle cx="475" cy="33" r="10" fill="#A1B2C3D4" />
<circle cx="208" cy="187" r="10" fill="#A1B2C3D4" />
<circle cx="367" cy="190" r="10" fill="#A1B2C3D4" />
<circle cx="371" cy="174" r="10" fill="#A1B2C3D4" />
<circle cx="456" cy="73" r="10" fill="#A1B2C3D4" />
<circle cx="445" cy="22" r="10" fill="#A1B2C3D4" />
<circle cx="181" cy="389" r="10" fill="#A1B2C3D4" />
<circle cx="498" cy="121" r="10" fill="#A1B2C3D4" />
<circle cx="253" cy="489" r="10" fill="#A1B2C3D4" />
<circle cx="52" cy="162" r="10" fill="#A1B2C3D4" />
<circle cx="313" cy="361" r="10" fill="#A1B2C3D4" />
<circle cx="40" cy="97" r="10" fill="#A1B2C3D4" />
<circle cx="228" cy="433" r="10" fill="#A1B2C3D4" />
<circle cx="158" cy="25" r="10" fill="#A1B2C3D4" />
<circle cx="325" cy="324" r="10" fill="#A1B2C3D4" />
<circle cx="88" cy="20" r="10" fill="#A1B2C3D4" />
<circle cx="197" cy="475" r="10" fill="#A1B2C3D4" />
<circle cx="114" cy="283" r="10" fill="#A1B2C3D4" />
<circle cx="373" cy="494" r="10" fill="#A1B2C3D4" />
<circle cx="354" cy="286" r="10" fill="#A1B2C3D4" />
<circle cx="124" cy="387" r="10" fill="#A1B2C3D4" />
<circle cx="186" cy="359" r="10" fill="#A1B2C3D4" />
<circle cx="90" cy="261" r="10" fill="#A1B2C3D4" />
<circle cx="357" cy="137" r="10" fill="#A1B2C3D4" />
<circle cx="282" cy="438" r="10" fill="#A1B2C3D4" />
<circle cx="129" cy="358" r="10" fill="#A1B2C3D4" />
<circle cx="71" cy="418" r="10" fill="#A1B2C3D4" />
<circle cx="397" cy="444" r="10" fill="#A1B2C3D4" />
<circle cx="391" cy="23" r="10" fill="#A1B2C3D4" />
<circle cx="287" cy="481" r="10" fill="#A1B2C3D4" />
<circle cx="388" cy="173" r="10" fill="#A1B2C3D4" />
</svg>